<svg xmlns="http://www.w3.org/2000/svg" height="800" width="1200" viewBox="-103.0074 -29.32375 892.7308 175.9425"><path d="M428.568 70.51h2.72c2.535 0 6.88.522 8.667 1.571 1.79 1.04 2.967 2.208 3.536 3.5.571 1.294.86 4.143.86 8.545v17.28c0 5.214-5.51 7.87-8.167 8.447-2.662.576-5.253.864-7.78.864-7.274 0-13.552-1.892-18.848-5.68-5.288-3.79-9.12-9.713-11.498-17.793-2.373-8.067-3.555-17.448-3.555-28.16 0-8.839 1.085-17.458 3.255-25.855 2.172-8.4 5.869-14.944 11.087-19.643 5.219-4.691 11.76-7.04 19.615-7.04 8.223 0 13.03 2.082 19.082 8.371 6.187 6.428 12.124 13.73 15.59 24.453h5.059V0h-2.878c-1.038 3.154-2.172 5.294-3.412 6.426-1.243 1.135-2.589 1.7-4.033 1.7-.931 0-3.948-1.025-9.037-3.075-5.091-2.052-8.776-3.298-11.05-3.737C433.595.441 430.342 0 425.127 0c-16.85 0-30.842 5.791-41.957 17.373-11.115 11.591-16.673 25.78-16.673 42.573 0 9.387 1.807 17.868 5.426 25.443 2.844 5.873 6.788 11.153 11.825 15.85 5.04 4.693 10.863 8.484 17.448 11.368 6.591 2.878 14.879 4.319 24.854 4.319 7.809 0 15.337-.807 22.604-2.42a100.204 100.204 0 0020.988-7.183v-23.22c0-4.07.228-6.63.694-7.672.825-1.982 1.998-3.395 3.522-4.25 1.521-.857 5.673-1.415 9.546-1.694v-3.802h-54.856v3.802z"/><path d="M554.663 100.585c-6.253 4.789-14.571 7.18-24.948 7.18h-5.917c-3.169 0-5.458-.432-6.88-1.304-1.418-.872-2.39-1.987-2.907-3.348-.519-1.36-.78-5.088-.78-11.18V60.744c5.33 0 11.572.693 14.374 2.088 2.797 1.387 5.256 4.1 7.366 8.136 2.12 4.035 3.507 8.49 4.165 14.814h4.498V28.386h-4.498c-.879 8.624-2.91 14.412-6.098 18.83-3.183 4.42-8.322 6.628-15.402 6.628h-4.406v-38.5c-.038-6.692 5.928-5.917 5.928-5.917h6.97c8.43 0 14.17.493 17.233 1.475 5.25 1.633 9.313 4.196 12.189 7.679 2.875 3.49 5.1 9.234 6.69 17.242h3.77V3.04h-93.777v4.49h2.958c3.602 0 6.445.762 8.516 2.283 1.476 1.035 2.488 2.51 3.032 4.413.273 1.14.412 4.217.412 9.225v69.361c0 5.552-.3 8.98-.903 10.293-.765 1.849-1.857 3.156-3.275 3.918-1.97 1.146-4.562 1.714-7.782 1.714h-2.958v5.218h95.365l5.73-35.27h-5.234c-2.731 9.818-7.225 17.122-13.478 21.904"/><path d="M628.451 1.298c-15.981-.66-29.45 4.55-40.387 15.635-10.957 11.078-16.42 24.93-16.42 41.537 0 14.795 4.205 27.582 12.627 38.36 10.648 13.637 25.724 20.465 45.226 20.465 19.437 0 34.494-7.151 45.151-21.455 8.042-10.77 12.068-23.257 12.068-37.454 0-16.607-5.397-30.44-16.177-41.5C659.75 5.829 645.73.635 628.469 1.299m25.49 88.77c-2.607 7.724-6.258 13.347-10.946 16.86-3.675 2.75-8.258 4.123-13.75 4.123-8.152 0-14.486-3.19-19.026-9.565-6.497-9.124-9.75-23.22-9.75-42.302 0-16.056 2.102-28.366 6.311-36.94C611.964 11.8 619.501 6.58 629.411 6.58c5.38 0 10.135 1.514 14.263 4.537 4.128 3.023 7.524 8.206 10.19 15.542 2.663 7.343 3.996 18.4 3.996 33.196 0 12.422-1.304 22.5-3.917 30.225M274.36 116.65c19.437 0 34.493-7.151 45.15-21.454 8.043-10.779 12.068-23.258 12.068-37.455 0-16.607-5.396-30.44-16.177-41.499C304.613 5.183 290.593-.01 273.332.653c-15.981-.659-29.45 4.55-40.387 15.636-10.957 11.077-16.42 24.93-16.42 41.536 0 14.795 4.205 27.582 12.627 38.36 10.648 13.638 25.724 20.466 45.226 20.466m-22.884-94.992c5.167-10.442 12.703-15.663 22.613-15.663 5.38 0 10.135 1.511 14.263 4.535s7.524 8.207 10.19 15.543c2.663 7.342 3.996 18.4 3.996 33.186 0 12.422-1.304 22.5-3.917 30.225-2.608 7.725-6.258 13.347-10.947 16.869-3.675 2.75-8.258 4.123-13.749 4.123-8.152 0-14.487-3.19-19.026-9.565-6.497-9.124-9.752-23.22-9.752-42.302 0-16.056 2.103-28.367 6.313-36.941"/><path d="M218.037 77.795h-5.235c-2.73 9.816-7.225 17.12-13.478 21.903-6.252 4.788-14.57 7.18-24.939 7.18h-5.916c-3.168 0-5.456-.435-6.88-1.304-1.419-.872-2.39-1.988-2.91-3.35-.516-1.361-.778-5.087-.778-11.18V59.857c5.328 0 11.572.693 14.375 2.088 2.799 1.386 5.257 4.1 7.368 8.136 2.118 4.035 3.506 8.489 4.165 14.813h4.498V27.498h-4.498c-.882 8.62-2.913 14.412-6.1 18.83-3.18 4.42-8.32 6.627-15.402 6.627h-4.409v-38.5c-.037-6.693 5.933-5.917 5.933-5.917h6.964c8.432 0 14.179.492 17.242 1.474 5.255 1.632 9.317 4.195 12.19 7.679 2.873 3.488 5.102 9.236 6.69 17.242h3.77V2.12H116.91v4.52h2.955c3.604 0 6.444.763 8.52 2.283 1.473 1.034 2.483 2.508 3.027 4.412.275 1.14.414 4.216.414 9.224V91.92c0 5.55-.3 8.98-.902 10.284-.763 1.848-1.86 3.159-3.273 3.918-1.97 1.146-4.562 1.715-7.786 1.715h-2.956v5.218h95.365l5.733-35.269zM38.05 107.777h-2.532c-3.631 0-6.856-1.114-9.676-3.344-2.815-2.23-4.225-6.525-4.225-12.89V24.556l72.565 90.461 4.705.006V22.758c0-5.246.435-6.768 1.3-8.927.867-2.158 2.077-3.716 3.623-4.673 1.547-.955 4.582-1.733 9.096-2.336V2.128H76.908v4.694c5.935-.108 10.172 1.421 12.684 4.591 1.84 2.35 2.76 4.678 2.76 11.349v48.317L35.86 2.13H1.489v3.725c3.267.108 3.383 1.204 5.123 2.127l9.208 9.266-.013 74.293c0 5.874-1.16 10.031-3.478 12.479-2.319 2.448-6.43 3.697-12.329 3.753v4.49h38.034v-4.49z"/><path stroke-width=".113" stroke="#000" d="M362.545 58.646c0 7.373-5.977 13.345-13.345 13.345-7.373 0-13.346-5.977-13.346-13.345 0-7.372 5.977-13.345 13.346-13.345 7.372 0 13.345 5.977 13.345 13.345z" color="#000"/></svg>