<?xml version="1.0" encoding="UTF-8"?>
<svg version="1.1" viewBox="0 0 575.54 868.82" xmlns="http://www.w3.org/2000/svg">
 <g>
  <path d="m564.46 857.74h-553.39v-846.67h553.39v846.67z" fill="#fff" stroke="#fff" stroke-width="22.153"/>
  <path d="m564.46 857.74h-553.39v-846.67h553.39v846.67z" fill="#fff" stroke="#000" stroke-width="4.4308"/>
  <path d="m564.46 702.85h-553.39v-691.77h553.39v691.77z" stroke="#000" stroke-width="4.4308"/>
  <path d="m164.72 126.55h-20.26v123.59h20.26v-123.59zm109.43 146.98-70.052 60.26h-59.635v150.05h-109.48v-440.89h169.11l70.052 62.083v168.49z" fill="#fff"/>
  <path d="m539.83 213.84h-109.48v-87.292h-22.76v273.65h22.76v-104.53h109.48v126.67l-67.656 61.51h-102.08l-75-61.51v-317.29l63.333-62.083h118.02l63.385 62.083v108.8z" fill="#fff"/>
  <path d="m110.56 580.61h-34.896v-30.521h-7.2396v95.573h7.2396v-36.51h34.896v44.219l-21.563 21.51h-32.5l-23.958-21.51v-110.78s20.208-21.719 20.208-21.719h37.656l20.156 21.719v38.021z" fill="#fff"/>
  <path d="m169.15 550.09h-7.2396v95.573h7.2396v-95.573zm35.885 103.28-20.365 21.51h-58.646v-154.01h57.448s21.562 21.719 21.562 21.719v110.78z" fill="#fff"/>
  <path d="m251.44 608.73h-33.958v-21.042h33.958v21.042z" fill="#fff"/>
  <path d="m303.73 550.09h-7.0833v33.698h7.0833v-33.698zm33.906 33.698-15.104 14.427 15.104 14.792v61.875h-33.906v-61.875h-7.0833v61.875h-34.896v-154.01h55.469s20.417 21.719 20.417 21.719v41.198z" fill="#fff"/>
  <path d="m394.31 550.09h-7.0834v95.573h7.0834v-95.573zm35.833 103.28-20.365 21.51h-37.656l-20.729-21.51v-110.78l20.729-21.719h36.094l21.927 21.719v110.78z" fill="#fff"/>
  <path d="m543.11 520.87v154.01h-32.708s1.3542-79.271 1.3542-79.271h-1.5625l-11.198 79.271h-12.292l-11.198-79.271h-1.5625s1.3541 79.271 1.3541 79.271h-32.708v-154.01h38.385l10.781 76.458h2.1875l10.781-76.458h38.385z" fill="#fff"/>
  <path d="m88.16 759.98h-26.198v-15.365h-5.4167v22.812l16.198 1.6145 16.979 16.042v35.833l-15.781 15.833h-29.219l-15.885-15.833v-21.094h27.708v15.364h5.4167v-23.49l-15.26-1.4063-17.083-15.885v-35.365l15.104-16.042h28.021s15.417 16.042 15.417 16.042v20.938z"/>
  <path d="m130.09 744.62h-5.4688v70.573h5.4688v-70.573zm27.656 76.302-15.729 15.833h-29.062l-16.042-15.833v-81.875l16.042-16.042h27.865l16.927 16.042v81.875z"/>
  <path d="m217.01 744.62h-21.667v20.938h16.979v21.562h-16.979v49.635h-26.927v-113.75h48.594v21.615z"/>
  <path d="m276.34 744.62h-12.552v92.135h-27.708v-92.135h-13.333v-21.615h53.594v21.615z"/>
  <path d="m347.17 836.75h-20.573s-3.8021-40.885-3.8021-40.885h-1.6666s-4.0625 40.885-4.0625 40.885h-20.312l-18.438-113.75h25.26l7.0833 54.323h1.0938s3.802-54.323 3.802-54.323h12.083l4.5312 54.323h1.0938l6.927-54.323h25.312l-18.333 113.75z"/>
  <path d="m392.95 750.3h-1.6667s-2.7083 44.271-2.7083 44.271h7.7083s-3.3333-44.271-3.3333-44.271zm32.708 86.458h-26.198l-1.6667-20.625h-10.573l-1.5104 20.625h-26.198l14.219-113.75h37.24l14.688 113.75z"/>
  <path d="m464.98 744.62h-5.4687v24.896h5.4687v-24.896zm26.146 24.896-11.615 10.625 11.615 10.938v45.677h-26.146v-45.677h-5.4687v45.677h-26.927v-113.75h42.865l15.677 16.042v30.469z"/>
  <path d="m546.02 744.62h-18.438v21.25h15.417v21.562h-15.417v27.76h19.531v21.562h-46.458v-113.75h45.365v21.615z"/>
 </g>
</svg>