<?xml version="1.0" encoding="UTF-8"?>
<!-- Created with Inkscape (http://www.inkscape.org/) -->
<svg width="932" height="1324" version="1.1" viewBox="0 0 932 1324" xmlns="http://www.w3.org/2000/svg">
 <g transform="translate(-2.5667 -1.8327)">
  <path d="m3.9 344.51h140c65.64-0.5 112.29-25.729 112-97.333 0.292-45.021-23.031-77.864-70.667-85.333 28.115-5.3853 55.251-26.807 54.667-74.667 0.584-51.151-31.312-85.901-112-85.333h-124l33.333 26.667h74.667c70.511 0.37467 96.213 16.083 96 58.667 0.21334 41.672-21.683 65.473-89.333 65.333h-81.333v28h85.333c61.271-0.25066 101.25 10.219 101.33 66.667-0.0787 59.703-33.401 69.224-105.33 69.333h-81.333v-288l-33.333-26.667v342.67"/>
  <path d="m526.57 227.17c0.464-88.333-40.953-136.41-108-136-71-0.412-113.84 58.615-113.33 130.67-0.50534 72.661 33.765 128.83 113.33 129.33 62.287-0.50533 91.803-36.203 106.67-82.667h-32c-9.0467 35.989-38.083 56.459-74.667 56-55.292 0.45867-83.855-43.812-84-97.333v-24c6.3387-46.245 32.995-86.703 84-86.667 50.864-0.036 77.521 38.995 77.333 86.667h-161.33v24h192"/>
  <path d="m669.23 344.51c-7.0733 1.88-19.448 6.1613-33.333 6.6667-28.005-0.50533-43.713-12.88-44-49.333v-180h-34.667v-24h34.667v-69.333h29.333v69.333h45.333v24h-45.333v168c-0.484 24.651 0.46934 35.125 24 34.667 7.8853 0.45867 15.973-0.96933 24-2.6667v22.667"/>
  <path d="m903.9 167.17c0.46933-56.896-39.041-76.412-89.333-76-53.479-0.412-96.797 22.916-101.33 81.333h29.333c5.1933-43.188 32.323-56.036 72-56 44.104-0.036 61.24 20.907 61.333 49.333-0.0933 9.1773-1.0413 22.031-10.667 26.667-9.416 3.932-27.031 6.7867-37.333 8l-40 5.3333c-57.276 7.26-85.839 32.489-85.333 73.333-0.50533 48.172 38.527 71.495 81.333 72 36.213-0.50533 68.584-14.781 92-41.333 0.86 17.031 4.1933 33.693 22.667 36 4.8493 1.5 8.6613 1.9733 13.333 1.3333 8.1773 0.64 18.177-2.6933 22.667-4v-22.667c-24.484 8.7453-30.197 3.5053-30.667-18.667l-28-49.333c-0.0933 50.563-44.839 72.459-90.667 72-26.527 0.45867-52.708-13.823-53.333-44 0.62534-33.131 26.807-48.844 70.667-52 24.213-2.0787 48.964-3.984 73.333-13.333v37.333l28 49.333v-134.67"/>
  <path d="m382.02 613.92c0-88.62 77.319-95.163 97.541-95.163 20.222 0 147.5 10.704 147.5 128.47 0 118.36-98.732 135.61-180.21 135.61v36.281c61.261 0 192.11 20.222 192.11 159.99s-128.47 154.64-225.42 154.64v44.014h123.71c155.83 0 283.7-55.908 283.7-190.92 0-135.61-134.42-182.59-227.8-187.35 0 0 196.87-14.876 196.87-141.55 0-132.04-161.78-184.38-339.02-184.38-172.48 0-259.91 71.372-259.91 202.82 0 102.89 0.6052 649.49 0.6052 649.49h-189.14v-937.35h932v937.35h-551.94s-0.605-622.72-0.605-711.94"/>
 </g>
</svg>
