<?xml version="1.0" encoding="UTF-8"?>
<svg id="svg6" width="249.37" height="62.912" enable-background="new -30 -27 306 113" version="1.1" viewBox="-30 -27 249.37 62.912" xml:space="preserve" xmlns="http://www.w3.org/2000/svg" xmlns:cc="http://creativecommons.org/ns#" xmlns:dc="http://purl.org/dc/elements/1.1/" xmlns:rdf="http://www.w3.org/1999/02/22-rdf-syntax-ns#"><metadata id="metadata10"><rdf:RDF><cc:Work rdf:about=""><dc:format>image/svg+xml</dc:format><dc:type rdf:resource="http://purl.org/dc/dcmitype/StillImage"/><dc:title/></cc:Work></rdf:RDF></metadata>

<path id="path4" d="m210.13 31.121h-1.5508l-0.63378 4.791h-0.7754l0.70411-4.791h-1.5498l0.0703-0.63574h3.8047l-0.0693 0.63574zm5.6367 4.791h-0.77539v-4.1582l-2.1846 4.1582-0.91601-4.1582-1.3379 4.1582h-0.7041l1.7598-5.4268h0.63574l0.84571 3.666 1.9014-3.666h0.77539zm-18.592-62.854h-28.068s-7.4385 8.7764-8.834 10.462c-7.3789 8.8896-8.7148 11.273-8.9492 11.913 0.0586-0.63965-0.23339-3.0234-3.3711-12.031-0.87012-2.4409-3.5449-10.344-3.5449-10.344h-9.5879v-0.057617l-23.362 0.05762h-17.549l-1.8022 7.4395 13.308 0.05713h3.0791c8.543 0 13.775 3.4287 12.321 9.4736-1.5693 6.6245-9.0674 9.5303-16.969 9.5303h-2.9648l3.8359-16.271h-13.249l-5.6382 23.768h18.829c14.12 0 27.604-7.439 29.93-17.027 0.46387-1.7446 0.40625-6.1035-0.69922-8.7173 0-0.1167-0.0576-0.1748-0.11523-0.40723-0.0596-0.05762-0.11719-0.46533 0.11523-0.52197 0.11719-0.05859 0.35059 0.17285 0.40821 0.23145 0.11523 0.29053 0.17383 0.52295 0.17383 0.52295l11.971 33.822 30.51-34.404h15.981c8.543 0 13.774 3.4287 12.378 9.4736-1.627 6.6245-9.124 9.5303-17.026 9.5303h-2.9639l3.835-16.271h-13.25l-5.6358 23.768h18.828c14.122 0 27.663-7.439 29.929-17.027 2.3242-9.5308-7.6719-16.97-21.852-16.97zm-143.68 4.89e-4 -40.596 0.05713-3.3164 13.83h-17.514l3.3164-13.83-13.263-0.01709-8.1343 33.921 13.271-0.01416 3.1968-13.332h17.514l-3.1973 13.332h13.249l6.3579-26.513 21.794 0.0625h3.0801c8.5425 0 13.773 3.4287 12.378 9.4727-1.6274 6.625-9.124 9.5308-17.028 9.5308h-2.9639l3.8359-16.272h-13.25l-5.6372 23.769h18.829c14.122 0 27.662-7.4385 29.928-17.027 2.3242-9.5308-7.6709-16.969-21.851-16.969zm93.41 42.016c-35.798 0-64.797 4.127-64.797 9.1816 0 5.1143 29 9.1816 64.797 9.1816 35.797 0 64.854-4.0674 64.854-9.1816 0-5.0547-29.057-9.1816-64.854-9.1816zm-2.3252 12.436c-8.1953 0-14.819-1.3936-14.819-3.0791 0-1.6836 6.624-3.0225 14.819-3.0225 8.1943 0 14.819 1.3389 14.819 3.0225 0 1.6855-6.625 3.0791-14.819 3.0791zm-57.06-12.436c-35.798 0-64.797 4.126-64.797 9.1826 0 5.1133 28.999 9.1816 64.797 9.1816 4.3887 0 8.6748-0.06152 12.82-0.17871-29.653-0.83496-51.978-4.5166-51.978-9.0029 0-4.4365 22.324-8.1562 51.978-9.002-4.1455-0.11816-8.4316-0.18066-12.82-0.18066zm-52.73 0c-35.798 0-64.797 4.126-64.797 9.1826 0 5.1133 28.999 9.1816 64.797 9.1816 4.3892 0 8.6753-0.06152 12.821-0.17871-29.653-0.83496-51.978-4.5166-51.978-9.0029 0-4.4365 22.325-8.1562 51.978-9.002-4.1455-0.11816-8.4316-0.18066-12.821-0.18066z" clip-rule="evenodd" fill-rule="evenodd"/>
</svg>
